<svg xmlns="http://www.w3.org/2000/svg" width="375" viewBox="0 0 375 375" height="375" version="1.0"><defs><clipPath id="a"><path d="M 163 29 L 338 29 L 338 348 L 163 348 Z M 163 29"/></clipPath><clipPath id="b"><path d="M 340.441406 345.8125 L 166.382812 349.410156 L 159.804688 31.136719 L 333.863281 27.539062 Z M 340.441406 345.8125"/></clipPath><clipPath id="c"><path d="M 340.441406 345.8125 L 166.382812 349.410156 L 159.804688 31.136719 L 333.863281 27.539062 Z M 340.441406 345.8125"/></clipPath><clipPath id="d"><path d="M 340.441406 345.8125 L 166.382812 349.410156 L 159.804688 31.136719 L 333.863281 27.539062 Z M 340.441406 345.8125"/></clipPath><clipPath id="e"><path d="M 340.4375 345.597656 L 165.820312 349.207031 L 159.25 31.363281 L 333.867188 27.753906 Z M 340.4375 345.597656"/></clipPath><clipPath id="f"><path d="M 340.4375 345.597656 L 166.40625 349.195312 L 159.835938 31.351562 L 333.867188 27.753906 Z M 340.4375 345.597656"/></clipPath><clipPath id="g"><path d="M 163 34 L 326 34 L 326 343 L 163 343 Z M 163 34"/></clipPath><clipPath id="h"><path d="M 340.441406 345.8125 L 166.382812 349.410156 L 159.804688 31.136719 L 333.863281 27.539062 Z M 340.441406 345.8125"/></clipPath><clipPath id="i"><path d="M 340.441406 345.8125 L 166.382812 349.410156 L 159.804688 31.136719 L 333.863281 27.539062 Z M 340.441406 345.8125"/></clipPath><clipPath id="j"><path d="M 340.441406 345.8125 L 166.382812 349.410156 L 159.804688 31.136719 L 333.863281 27.539062 Z M 340.441406 345.8125"/></clipPath><clipPath id="k"><path d="M 170 41 L 319 41 L 319 337 L 170 337 Z M 170 41"/></clipPath><clipPath id="l"><path d="M 340.441406 345.8125 L 166.382812 349.410156 L 159.804688 31.136719 L 333.863281 27.539062 Z M 340.441406 345.8125"/></clipPath><clipPath id="m"><path d="M 340.441406 345.8125 L 166.382812 349.410156 L 159.804688 31.136719 L 333.863281 27.539062 Z M 340.441406 345.8125"/></clipPath><clipPath id="n"><path d="M 340.441406 345.8125 L 166.382812 349.410156 L 159.804688 31.136719 L 333.863281 27.539062 Z M 340.441406 345.8125"/></clipPath><clipPath id="o"><path d="M 168 42 L 321 42 L 321 335 L 168 335 Z M 168 42"/></clipPath><clipPath id="p"><path d="M 340.441406 345.8125 L 166.382812 349.410156 L 159.804688 31.136719 L 333.863281 27.539062 Z M 340.441406 345.8125"/></clipPath><clipPath id="q"><path d="M 340.441406 345.8125 L 166.382812 349.410156 L 159.804688 31.136719 L 333.863281 27.539062 Z M 340.441406 345.8125"/></clipPath><clipPath id="r"><path d="M 340.441406 345.8125 L 166.382812 349.410156 L 159.804688 31.136719 L 333.863281 27.539062 Z M 340.441406 345.8125"/></clipPath><clipPath id="s"><path d="M 181 61 L 309 61 L 309 316 L 181 316 Z M 181 61"/></clipPath><clipPath id="t"><path d="M 340.441406 345.8125 L 166.382812 349.410156 L 159.804688 31.136719 L 333.863281 27.539062 Z M 340.441406 345.8125"/></clipPath><clipPath id="u"><path d="M 340.441406 345.8125 L 166.382812 349.410156 L 159.804688 31.136719 L 333.863281 27.539062 Z M 340.441406 345.8125"/></clipPath><clipPath id="v"><path d="M 340.441406 345.8125 L 166.382812 349.410156 L 159.804688 31.136719 L 333.863281 27.539062 Z M 340.441406 345.8125"/></clipPath><clipPath id="w"><path d="M 195 75 L 309 75 L 309 302 L 195 302 Z M 195 75"/></clipPath><clipPath id="x"><path d="M 340.441406 345.8125 L 166.382812 349.410156 L 159.804688 31.136719 L 333.863281 27.539062 Z M 340.441406 345.8125"/></clipPath><clipPath id="y"><path d="M 340.441406 345.8125 L 166.382812 349.410156 L 159.804688 31.136719 L 333.863281 27.539062 Z M 340.441406 345.8125"/></clipPath><clipPath id="z"><path d="M 340.441406 345.8125 L 166.382812 349.410156 L 159.804688 31.136719 L 333.863281 27.539062 Z M 340.441406 345.8125"/></clipPath><clipPath id="A"><path d="M 209 89 L 309 89 L 309 288 L 209 288 Z M 209 89"/></clipPath><clipPath id="B"><path d="M 340.441406 345.8125 L 166.382812 349.410156 L 159.804688 31.136719 L 333.863281 27.539062 Z M 340.441406 345.8125"/></clipPath><clipPath id="C"><path d="M 340.441406 345.8125 L 166.382812 349.410156 L 159.804688 31.136719 L 333.863281 27.539062 Z M 340.441406 345.8125"/></clipPath><clipPath id="D"><path d="M 340.441406 345.8125 L 166.382812 349.410156 L 159.804688 31.136719 L 333.863281 27.539062 Z M 340.441406 345.8125"/></clipPath><clipPath id="E"><path d="M 276 245 L 281.261719 245 L 281.261719 269 L 276 269 Z M 276 245"/></clipPath></defs><g clip-path="url(#a)"><g clip-path="url(#b)"><g clip-path="url(#c)"><g clip-path="url(#d)"><g clip-path="url(#e)"><g clip-path="url(#f)"><path fill="#03AEAB" d="M 163.121094 190.273438 C 161.304688 102.5 198.792969 30.542969 246.851562 29.550781 C 294.910156 28.558594 335.335938 98.902344 337.152344 186.675781 C 338.964844 274.445312 301.480469 346.402344 253.421875 347.398438 C 205.363281 348.390625 164.933594 278.042969 163.121094 190.273438"/></g></g></g></g></g></g><g clip-path="url(#g)"><g clip-path="url(#h)"><g clip-path="url(#i)"><g clip-path="url(#j)"><path fill="#0ADDD3" d="M 163.703125 190.261719 C 161.941406 104.996094 196.777344 35.128906 241.515625 34.203125 C 286.25 33.28125 323.941406 101.648438 325.707031 186.910156 C 327.46875 272.175781 292.628906 342.042969 247.894531 342.96875 C 203.160156 343.890625 165.46875 275.523438 163.703125 190.261719"/></g></g></g></g><g clip-path="url(#k)"><g clip-path="url(#l)"><g clip-path="url(#m)"><g clip-path="url(#n)"><path fill="#36FFF1" d="M 241.65625 41.015625 C 260.621094 40.621094 279.117188 55.007812 293.730469 81.519531 C 309.109375 109.414062 318.039062 146.898438 318.867188 187.054688 C 319.699219 227.210938 312.328125 265.027344 298.113281 293.535156 C 284.605469 320.628906 266.722656 335.765625 247.753906 336.15625 C 228.789062 336.550781 210.292969 322.164062 195.675781 295.652344 C 180.296875 267.753906 171.367188 230.273438 170.539062 190.121094 C 169.707031 149.964844 177.082031 112.144531 191.296875 83.636719 C 204.804688 56.546875 222.6875 41.40625 241.65625 41.015625"/></g></g></g></g><g clip-path="url(#o)"><g clip-path="url(#p)"><g clip-path="url(#q)"><g clip-path="url(#r)"><path fill="#0ADDD3" d="M 253.445312 42.835938 C 271.785156 43.925781 288.992188 58.9375 301.90625 85.105469 C 316.296875 114.273438 322.890625 152.625 320.460938 193.089844 C 318.035156 233.554688 306.910156 270.847656 289.128906 298.105469 C 273.183594 322.554688 254.300781 335.425781 235.960938 334.332031 C 217.625 333.246094 200.417969 318.234375 187.503906 292.066406 C 173.109375 262.898438 166.519531 224.546875 168.945312 184.085938 C 171.375 143.617188 182.5 106.324219 200.277344 79.066406 C 216.222656 54.613281 235.109375 41.746094 253.445312 42.835938"/></g></g></g></g><g clip-path="url(#s)"><g clip-path="url(#t)"><g clip-path="url(#u)"><g clip-path="url(#v)"><path fill="#024357" d="M 181.25 189.898438 C 179.796875 119.632812 207.03125 62.085938 242.074219 61.359375 C 277.121094 60.636719 306.707031 117.011719 308.15625 187.273438 C 309.609375 257.539062 282.378906 315.085938 247.335938 315.8125 C 212.289062 316.535156 182.703125 260.164062 181.25 189.898438"/></g></g></g></g><g clip-path="url(#w)"><g clip-path="url(#x)"><g clip-path="url(#y)"><g clip-path="url(#z)"><path fill="#012235" d="M 195.347656 189.605469 C 194.058594 127.148438 218.265625 75.996094 249.414062 75.351562 C 280.566406 74.707031 306.867188 124.816406 308.15625 187.273438 C 309.449219 249.730469 285.242188 300.882812 254.089844 301.527344 C 222.941406 302.171875 196.640625 252.0625 195.347656 189.605469"/></g></g></g></g><g clip-path="url(#A)"><g clip-path="url(#B)"><g clip-path="url(#C)"><g clip-path="url(#D)"><path fill="#03151F" d="M 209.453125 189.316406 C 208.320312 134.667969 229.503906 89.90625 256.757812 89.34375 C 284.019531 88.78125 307.027344 132.625 308.15625 187.273438 C 309.289062 241.921875 288.109375 286.683594 260.851562 287.246094 C 233.59375 287.808594 210.582031 243.964844 209.453125 189.316406"/></g></g></g></g><path fill="#03151F" d="M 262.566406 246.847656 C 262.566406 246.847656 254.191406 259.898438 251.085938 253.4375 C 248.0625 247.152344 257.125 246.824219 255.917969 238.4375 C 254.710938 230.054688 242.625 233.046875 242.019531 227.058594 C 241.414062 221.070312 250.632812 219.746094 250.632812 215.230469 C 250.632812 209.839844 240.660156 211.488281 240.660156 201.304688 C 240.660156 191.125 253.5 174.359375 254.105469 168.367188 C 254.710938 162.378906 238.878906 157.5625 240.8125 148.003906 C 242.625 139.019531 249.273438 142.613281 252.898438 136.027344 C 255.976562 130.4375 248.644531 119.707031 252.292969 119.257812 C 257.128906 118.660156 262.566406 130.035156 262.566406 130.035156 C 262.566406 130.035156 278.882812 201.332031 262.566406 246.847656"/><path fill="#03151F" d="M 201.996094 256.71875 C 200.902344 255.359375 206.019531 252.414062 207.289062 254.378906 C 208.558594 256.347656 203.863281 259.042969 201.996094 256.71875"/><path fill="#03151F" d="M 237.328125 116.285156 C 235.429688 118.691406 228.4375 110.832031 230.449219 108.105469 C 232.460938 105.378906 238.542969 114.746094 237.328125 116.285156"/><path fill="#03151F" d="M 228.757812 251.589844 C 231.394531 251.207031 228.195312 260.402344 225.386719 259.808594 C 222.578125 259.21875 225.933594 252.007812 228.757812 251.589844"/><path fill="#03151F" d="M 272.695312 214.570312 C 272.695312 214.570312 269.417969 252.210938 262.539062 252.210938 C 255.664062 252.210938 254.023438 217.34375 253.371094 206.246094 C 252.714844 195.152344 253.085938 164.3125 253.699219 157.90625 C 254.679688 147.601562 258.882812 121.339844 262.214844 121.054688 C 266.800781 120.65625 271.054688 143.246094 272.695312 165.433594 C 273.484375 176.152344 274.003906 198.71875 272.695312 214.570312"/><g clip-path="url(#E)"><path fill="#03151F" d="M 276.941406 268.015625 C 276.085938 266.105469 275.277344 246.910156 277.605469 245.589844 C 279.9375 244.269531 281.265625 256.140625 281.265625 259.441406 C 281.265625 262.738281 278.273438 270.980469 276.941406 268.015625"/></g><path fill="#03151F" d="M 273.371094 107.148438 C 271.332031 103.683594 270.875 93.503906 273.597656 92.605469 C 277.460938 91.328125 277.742188 101.375 278.03125 104.550781 C 278.324219 107.726562 275.796875 115.449219 274.050781 113.714844 C 272.730469 112.410156 273.371094 107.148438 273.371094 107.148438"/><path fill="#03151F" d="M 212.105469 122.191406 C 212.605469 118.726562 219.128906 121.78125 218.304688 124.648438 C 217.28125 128.195312 211.6875 125.058594 212.105469 122.191406"/><path fill="#03151F" d="M 254.710938 283.953125 C 253.351562 285.300781 250.632812 272.726562 254.257812 274.972656 C 257.882812 277.21875 256.523438 282.160156 254.710938 283.953125"/><path fill="#14B7A6" d="M 219.820312 164.921875 C 226.304688 158.210938 259.703125 147.945312 261.359375 151.023438 C 266.191406 160.007812 267.402344 174.382812 266.796875 189.953125 C 266.28125 203.230469 264.597656 223.421875 260.753906 224.691406 C 257.125 225.886719 229.792969 218.824219 219.820312 217.027344 C 212.042969 215.625 204.890625 180.375 219.820312 164.921875"/><path fill="#03151F" d="M 209.386719 189.355469 C 183.539062 178.1875 143.25 182.804688 125.597656 191.707031 C 98.191406 205.523438 81.933594 252.6875 81.269531 257.628906 C 80.597656 262.574219 90.238281 262.035156 92.832031 259.582031 C 113.300781 240.261719 132.539062 223.214844 142.914062 220.5 C 152.355469 218.023438 208.402344 223.28125 212.675781 222.855469 C 216.949219 222.433594 224.851562 196.035156 209.386719 189.355469"/><path fill="#03151F" d="M 94.023438 250.605469 C 90.878906 250.230469 77.078125 263.820312 80.109375 266.152344 C 84.402344 269.460938 89.621094 271.5625 91.929688 267.753906 C 95.457031 261.941406 94.023438 250.605469 94.023438 250.605469"/><path fill="#03151F" d="M 80.109375 266.152344 L 67.761719 257.324219 C 67.761719 257.324219 67.28125 252.394531 70.191406 252.035156 C 73.621094 251.609375 84.871094 251.742188 84.871094 251.742188 C 84.871094 251.742188 89.207031 255.425781 87.683594 258.6875 C 86.160156 261.945312 80.109375 266.152344 80.109375 266.152344"/><path fill="#03151F" d="M 58.128906 245.472656 C 59.324219 244.445312 71.714844 251.84375 74.191406 253.070312 C 76.675781 254.300781 86.101562 266.015625 86.101562 266.015625 C 86.101562 266.015625 70.144531 263.933594 66.425781 262.097656 C 63.996094 260.894531 56.03125 247.269531 58.128906 245.472656"/><path fill="#03151F" d="M 189 187.382812 C 189 187.382812 185.214844 216.304688 201.238281 223.765625 C 212.445312 228.980469 225.761719 223.71875 227.980469 218.824219 C 232.222656 209.46875 234.039062 171.617188 222.679688 162.402344 C 216.035156 157.011719 189 187.382812 189 187.382812"/><path fill="#03151F" d="M 63.136719 180.972656 C 61.027344 184.746094 64.222656 188.414062 68.1875 188.707031 C 71.246094 188.929688 123.570312 165.996094 130.824219 165.996094 C 136.867188 165.996094 164.0625 177.375 191.257812 193.546875 C 193.675781 230.078125 226.980469 218.445312 227.570312 214.925781 C 231.480469 191.652344 228.015625 174.925781 220.265625 165.996094 C 218.8125 164.328125 165.394531 124.519531 136.265625 128.265625 C 101.820312 132.695312 66.628906 174.71875 63.136719 180.972656"/><path fill="#03151F" d="M 75.386719 182.597656 C 75.832031 176.523438 66.277344 177.972656 66.277344 177.972656 C 66.277344 177.972656 54.699219 181.328125 55.082031 184.351562 C 55.464844 187.375 58.417969 195.453125 63.757812 194.789062 C 69.097656 194.125 75.242188 184.535156 75.386719 182.597656"/><path fill="#03151F" d="M 59.609375 189.546875 C 59.609375 189.546875 48.980469 185.109375 45.925781 179.351562 C 42.871094 173.585938 43.214844 168.871094 43.214844 168.871094 C 43.214844 168.871094 62.3125 174.269531 67.367188 177.414062 C 71.988281 180.292969 65.28125 191.53125 59.609375 189.546875"/><path fill="#03151F" d="M 40.15625 161.257812 C 37.53125 165.039062 40.207031 176.988281 42.207031 180.578125 C 44.210938 184.167969 60.230469 189.796875 61.183594 188.140625 C 61.527344 187.546875 55.183594 179.949219 52.359375 175.09375 C 47.3125 166.433594 41.828125 158.835938 40.15625 161.257812"/></svg>